<svg width="162" height="47" viewBox="0 0 162 47" fill="none" xmlns="http://www.w3.org/2000/svg">
<path d="M7.46094 15.8672L7.63672 18.2305C9.13411 16.3945 11.1589 15.4766 13.7109 15.4766C16.4323 15.4766 18.3008 16.5508 19.3164 18.6992C20.8008 16.5508 22.9167 15.4766 25.6641 15.4766C27.9557 15.4766 29.6615 16.1471 30.7812 17.4883C31.901 18.8164 32.4609 20.8216 32.4609 23.5039V37H26.7969V23.5234C26.7969 22.3255 26.5625 21.4531 26.0938 20.9062C25.625 20.3464 24.7982 20.0664 23.6133 20.0664C21.9206 20.0664 20.7487 20.8737 20.0977 22.4883L20.1172 37H14.4727V23.543C14.4727 22.319 14.2318 21.4336 13.75 20.8867C13.2682 20.3398 12.4479 20.0664 11.2891 20.0664C9.6875 20.0664 8.52865 20.7305 7.8125 22.0586V37H2.16797V15.8672H7.46094ZM44.707 29.0117L48.6133 15.8672H54.668L46.1719 40.2812L45.7031 41.3945C44.4401 44.1549 42.3568 45.5352 39.4531 45.5352C38.6328 45.5352 37.7995 45.4115 36.9531 45.1641V40.8867L37.8125 40.9062C38.8802 40.9062 39.6745 40.7435 40.1953 40.418C40.7292 40.0924 41.1458 39.5521 41.4453 38.7969L42.1094 37.0586L34.707 15.8672H40.7812L44.707 29.0117ZM57.2656 37V8.5625H66.0156C68.5156 8.5625 70.7487 9.12891 72.7148 10.2617C74.694 11.3815 76.237 12.9831 77.3438 15.0664C78.4505 17.1367 79.0039 19.4935 79.0039 22.1367V23.4453C79.0039 26.0885 78.457 28.4388 77.3633 30.4961C76.2826 32.5534 74.7526 34.1484 72.7734 35.2812C70.7943 36.4141 68.5612 36.987 66.0742 37H57.2656ZM63.125 13.3086V32.293H65.957C68.2487 32.293 70 31.5443 71.2109 30.0469C72.4219 28.5495 73.0404 26.4076 73.0664 23.6211V22.1172C73.0664 19.2266 72.4674 17.0391 71.2695 15.5547C70.0716 14.0573 68.3203 13.3086 66.0156 13.3086H63.125ZM82.0312 26.2383C82.0312 24.1419 82.4349 22.2734 83.2422 20.6328C84.0495 18.9922 85.2083 17.7227 86.7188 16.8242C88.2422 15.9258 90.0065 15.4766 92.0117 15.4766C94.8633 15.4766 97.1875 16.349 98.9844 18.0938C100.794 19.8385 101.803 22.2083 102.012 25.2031L102.051 26.6484C102.051 29.8906 101.146 32.4948 99.3359 34.4609C97.526 36.4141 95.0977 37.3906 92.0508 37.3906C89.0039 37.3906 86.569 36.4141 84.7461 34.4609C82.9362 32.5078 82.0312 29.8516 82.0312 26.4922V26.2383ZM87.6758 26.6484C87.6758 28.6536 88.0534 30.1901 88.8086 31.2578C89.5638 32.3125 90.6445 32.8398 92.0508 32.8398C93.418 32.8398 94.4857 32.319 95.2539 31.2773C96.0221 30.2227 96.4062 28.543 96.4062 26.2383C96.4062 24.2721 96.0221 22.7487 95.2539 21.668C94.4857 20.5872 93.4049 20.0469 92.0117 20.0469C90.6315 20.0469 89.5638 20.5872 88.8086 21.668C88.0534 22.7357 87.6758 24.3958 87.6758 26.6484ZM104.707 26.2773C104.707 23.0352 105.475 20.4245 107.012 18.4453C108.561 16.4661 110.645 15.4766 113.262 15.4766C115.579 15.4766 117.383 16.2708 118.672 17.8594L118.906 15.8672H124.023V36.2969C124.023 38.1458 123.6 39.7539 122.754 41.1211C121.921 42.4883 120.742 43.5299 119.219 44.2461C117.695 44.9622 115.911 45.3203 113.867 45.3203C112.318 45.3203 110.807 45.0078 109.336 44.3828C107.865 43.7708 106.751 42.9766 105.996 42L108.496 38.5625C109.902 40.138 111.608 40.9258 113.613 40.9258C115.111 40.9258 116.276 40.5221 117.109 39.7148C117.943 38.9206 118.359 37.7878 118.359 36.3164V35.1836C117.057 36.6549 115.345 37.3906 113.223 37.3906C110.684 37.3906 108.626 36.401 107.051 34.4219C105.488 32.4297 104.707 29.793 104.707 26.5117V26.2773ZM110.352 26.6875C110.352 28.6016 110.736 30.1055 111.504 31.1992C112.272 32.2799 113.327 32.8203 114.668 32.8203C116.387 32.8203 117.617 32.1758 118.359 30.8867V22C117.604 20.7109 116.387 20.0664 114.707 20.0664C113.353 20.0664 112.285 20.6198 111.504 21.7266C110.736 22.8333 110.352 24.487 110.352 26.6875Z" fill="#313131"/>
<path d="M153.83 14.0355C152.471 14.3547 151.408 15.4767 150.894 17.1364C150.654 17.9111 150.549 18.8726 150.628 19.5727C150.782 20.956 151.438 22.0407 152.411 22.5279C152.962 22.8042 153.508 22.8509 154.022 22.6698C154.382 22.5429 154.867 22.2591 155.184 21.9903C156.026 21.279 156.626 20.1831 156.851 18.9472C156.928 18.5235 156.947 18.3088 156.945 17.8365C156.945 16.9329 156.817 16.2739 156.534 15.6895C156.103 14.8009 155.42 14.2184 154.608 14.0448C154.385 13.9981 154.014 13.9944 153.83 14.0355Z" fill="#313131"/>
<path d="M145.162 14.1214C144.411 14.2521 143.702 14.842 143.28 15.6877C143.049 16.1488 142.941 16.5913 142.892 17.2689C142.869 17.5658 142.881 18.0418 142.914 18.3405C143.107 20.0357 143.902 21.4638 145.101 22.2628C145.341 22.4234 145.738 22.6194 146.008 22.709C146.199 22.7725 146.248 22.78 146.46 22.7893C146.741 22.8005 146.942 22.7744 147.187 22.696C147.568 22.5746 147.879 22.3842 148.172 22.093C148.751 21.5161 149.111 20.6461 149.196 19.6231C149.229 19.2012 149.192 18.5739 149.1 18.0829C148.732 16.0909 147.583 14.6161 146.061 14.1792C145.757 14.0934 145.446 14.0728 145.162 14.1214Z" fill="#313131"/>
<path d="M159.381 20.9336C158.126 21.139 157.035 21.9996 156.354 23.3232C156.041 23.9337 155.884 24.4303 155.762 25.2032C155.719 25.4795 155.711 25.584 155.711 25.9014C155.711 26.2897 155.734 26.482 155.814 26.7956C156.03 27.6376 156.538 28.3228 157.17 28.6271C157.515 28.7932 157.83 28.8548 158.184 28.8231C159.045 28.7484 159.812 28.362 160.494 27.66C161.246 26.8852 161.764 25.8137 161.932 24.6879C161.976 24.4079 162.006 23.8553 161.992 23.6294C161.923 22.4682 161.297 21.447 160.425 21.0736C160.087 20.9299 159.716 20.8795 159.381 20.9336Z" fill="#313131"/>
<path d="M139.97 21.4227C139.155 21.559 138.469 22.1265 138.215 22.877C138.125 23.1421 138.05 23.5211 138.019 23.8665C137.902 25.1192 138.345 26.5342 139.177 27.5722C139.8 28.347 140.602 28.8828 141.5 29.1236C142.256 29.3252 142.935 29.1348 143.51 28.5617C144.024 28.0502 144.281 27.3034 144.281 26.3196C144.281 25.9368 144.262 25.7278 144.195 25.373C143.966 24.1558 143.272 22.9909 142.322 22.2274C141.885 21.8764 141.296 21.5534 140.925 21.4619C140.632 21.3891 140.263 21.3742 139.97 21.4227Z" fill="#313131"/>
<path d="M149.7 25.9761C149.047 26.0489 148.402 26.2225 147.767 26.5007C146.795 26.9282 145.858 27.6395 145.252 28.4123C143.945 30.0813 143.038 31.8885 142.668 33.5556C142.646 33.6583 142.607 33.8132 142.582 33.901C142.457 34.3546 142.477 34.8699 142.64 35.3198C142.903 36.0442 143.471 36.6061 144.174 36.8413C144.594 36.9813 145.222 36.9795 145.922 36.8339C146.377 36.7405 146.718 36.6322 147.686 36.2757C149.032 35.7772 149.405 35.682 150.311 35.598C150.716 35.5606 150.789 35.5588 151.068 35.5793C151.783 35.6297 152.347 35.7847 153.431 36.2252C154.391 36.6154 154.927 36.8264 155.062 36.8637C156.412 37.2446 157.753 36.776 158.212 35.7623C158.413 35.3161 158.435 34.5899 158.267 33.901C158.102 33.2308 157.612 32.1424 157.143 31.4087C155.822 29.3364 154.878 28.1846 153.787 27.3071C152.762 26.4838 151.901 26.0937 150.842 25.9761C150.543 25.9425 150.003 25.9425 149.7 25.9761Z" fill="#313131"/>
</svg>
