<svg width="28" height="28" viewBox="0 0 28 28" fill="none" xmlns="http://www.w3.org/2000/svg">
<path d="M19.092 17.5594C19.0046 17.317 18.7373 17.1914 18.495 17.2787C18.2526 17.3661 18.1269 17.6333 18.2143 17.8757C18.2164 17.8816 18.2187 17.8875 18.2211 17.8934C18.6465 19.0036 18.6773 19.8526 18.3051 20.2258C17.8535 20.6765 16.7288 20.5356 15.2958 19.8498C13.3773 18.8537 11.6334 17.5523 10.1323 15.9967C6.47829 12.3422 4.97061 8.75638 5.90311 7.82388C6.20067 7.58889 6.58745 7.49862 6.9583 7.57758C7.21522 7.59647 7.43884 7.40346 7.45773 7.14654C7.47598 6.8982 7.29598 6.6793 7.0488 6.64927C6.40021 6.53452 5.73477 6.72362 5.2435 7.16241C3.5343 8.87114 6.14709 13.3284 9.47266 16.6544C11.0483 18.2849 12.8791 19.6477 14.8932 20.6891C15.2579 20.8637 15.6338 21.0141 16.0184 21.1392L12.704 22.3959C8.27822 20.7133 5.09219 16.7897 4.35392 12.1127C4.31397 11.8582 4.07525 11.6842 3.82073 11.7242C3.5662 11.7641 3.3922 12.0028 3.43214 12.2573C3.50538 12.7238 3.60334 13.1903 3.72323 13.6465C4.79743 17.7166 7.62672 21.0977 11.4436 22.8727L5.98848 24.9369C5.96347 24.8951 5.93198 24.8577 5.89518 24.8258C4.50879 23.7127 3.63891 22.0803 3.48812 20.3089L3.27167 17.6877C3.25465 17.4338 3.03493 17.2417 2.78093 17.2587C2.77609 17.2591 2.77125 17.2594 2.76647 17.2599C2.50967 17.2803 2.318 17.5051 2.33841 17.7619C2.33847 17.763 2.33859 17.7641 2.3387 17.7651L2.55888 20.3854C2.72285 22.2789 3.60614 24.0375 5.02706 25.2998L1.13564 26.7729L1.83537 23.9013C1.89642 23.6508 1.74294 23.3983 1.4925 23.3373C1.24206 23.2762 0.98957 23.4297 0.928519 23.6802L0.018407 27.412C-0.0429357 27.6622 0.110188 27.9148 0.360457 27.9761C0.452238 27.9986 0.548625 27.9927 0.636966 27.9592L17.8969 21.4284C17.9244 21.415 17.9503 21.3988 17.9743 21.3799C18.3479 21.3225 18.6942 21.1498 18.9647 20.8859C19.4269 20.4236 19.8248 19.4706 19.092 17.5594Z" fill="#FF9118"/>
<path d="M23.4941 16.3564C20.9723 15.4123 18.2467 15.1476 15.5904 15.589L13.9237 15.8689C13.6707 15.9175 13.505 16.162 13.5536 16.415C13.6006 16.6595 13.8313 16.8239 14.0776 16.7888L15.7439 16.5112C18.2386 16.0965 20.7985 16.3452 23.1666 17.2324C23.2192 17.251 23.2746 17.2603 23.3304 17.2599C23.588 17.2603 23.7972 17.0519 23.7976 16.7942C23.798 16.5992 23.6769 16.4245 23.4941 16.3564Z" fill="#FF9118"/>
<path d="M25.1526 9.12911C25.0418 8.89645 24.7634 8.79767 24.5308 8.90846L14.7346 13.5733C14.502 13.684 14.4032 13.9624 14.5139 14.195C14.5139 14.1951 14.514 14.1951 14.514 14.1951C14.6247 14.4277 14.903 14.5266 15.1357 14.4158C15.1357 14.4158 15.1357 14.4158 15.1358 14.4158L24.932 9.75093C25.1646 9.64014 25.2634 9.36176 25.1526 9.12911Z" fill="#FF9118"/>
<path d="M11.3342 3.16603C11.2829 2.91355 11.0367 2.75045 10.7842 2.80176C10.5317 2.85308 10.3686 3.09932 10.4199 3.35181C10.421 3.35741 10.4223 3.36295 10.4237 3.36849C11.0141 6.0064 10.7708 8.76262 9.72719 11.2563L9.04892 12.8838C8.9509 13.121 9.0628 13.3928 9.29943 13.4921C9.3561 13.516 9.41704 13.5282 9.47856 13.5281C9.66684 13.5281 9.83664 13.4149 9.90912 13.2412L10.5879 11.6155C11.706 8.94432 11.9668 5.99182 11.3342 3.16603Z" fill="#FF9118"/>
<path d="M25.6629 16.7935C24.89 16.7935 24.2634 17.42 24.2634 18.1929C24.2634 18.9658 24.89 19.5924 25.6629 19.5924C26.4358 19.5924 27.0623 18.9658 27.0623 18.1929C27.0623 17.42 26.4358 16.7935 25.6629 16.7935ZM25.6629 18.6594C25.4053 18.6594 25.1964 18.4505 25.1964 18.1929C25.1964 17.9353 25.4053 17.7264 25.6629 17.7264C25.9205 17.7264 26.1294 17.9353 26.1294 18.1929C26.1294 18.4505 25.9205 18.6594 25.6629 18.6594Z" fill="#FF9118"/>
<path d="M14.4671 3.73187C13.6942 3.73187 13.0676 4.35842 13.0676 5.13133C13.0676 5.90423 13.6942 6.53078 14.4671 6.53078C15.24 6.53078 15.8665 5.90423 15.8665 5.13133C15.8665 4.35842 15.24 3.73187 14.4671 3.73187ZM14.4671 5.59781C14.2095 5.59781 14.0006 5.38894 14.0006 5.13133C14.0006 4.87371 14.2095 4.66484 14.4671 4.66484C14.7247 4.66484 14.9336 4.87371 14.9336 5.13133C14.9336 5.38894 14.7247 5.59781 14.4671 5.59781Z" fill="#FF9118"/>
<path d="M10.2689 1.86594C10.7842 1.86594 11.2019 1.44823 11.2019 0.93297C11.2019 0.417705 10.7842 0 10.2689 0C9.75364 0 9.33594 0.417705 9.33594 0.93297C9.33594 1.44823 9.75364 1.86594 10.2689 1.86594Z" fill="#FF9118"/>
<path d="M23.3305 2.33243C23.0729 2.33243 22.864 2.5413 22.864 2.79891V3.2654C22.864 3.52301 23.0729 3.73188 23.3305 3.73188C23.5881 3.73188 23.797 3.52301 23.797 3.2654V2.79891C23.797 2.5413 23.5881 2.33243 23.3305 2.33243Z" fill="#FF9118"/>
<path d="M23.3305 0C23.0729 0 22.864 0.208869 22.864 0.466485V0.93297C22.864 1.19059 23.0729 1.39945 23.3305 1.39945C23.5881 1.39945 23.797 1.19059 23.797 0.93297V0.466485C23.797 0.208869 23.5881 0 23.3305 0Z" fill="#FF9118"/>
<path d="M24.7298 1.39946H24.2634C24.0057 1.39946 23.7969 1.60833 23.7969 1.86594C23.7969 2.12356 24.0057 2.33243 24.2634 2.33243H24.7298C24.9875 2.33243 25.1963 2.12356 25.1963 1.86594C25.1963 1.60833 24.9875 1.39946 24.7298 1.39946Z" fill="#FF9118"/>
<path d="M22.3973 1.39946H21.9308C21.6732 1.39946 21.4644 1.60833 21.4644 1.86594C21.4644 2.12356 21.6732 2.33243 21.9308 2.33243H22.3973C22.6549 2.33243 22.8638 2.12356 22.8638 1.86594C22.8638 1.60833 22.6549 1.39946 22.3973 1.39946Z" fill="#FF9118"/>
<path d="M20.0651 5.12154H17.7228C17.4652 5.12154 17.2563 5.3304 17.2563 5.58802V7.93024C17.2563 8.18786 17.4652 8.39673 17.7228 8.39673H20.0651C20.3227 8.39673 20.5315 8.18786 20.5315 7.93024V5.58802C20.5315 5.3304 20.3227 5.12154 20.0651 5.12154ZM19.5986 7.46376H18.1893V6.05451H19.5986V7.46376Z" fill="#FF9118"/>
<path d="M16.6667 9.01692C16.4954 8.83412 16.2104 8.81919 16.021 8.9831L11.3562 13.1815C11.1648 13.3538 11.1494 13.6487 11.3217 13.8401C11.494 14.0315 11.7889 14.047 11.9803 13.8747L16.6452 9.6763C16.8332 9.50014 16.8428 9.20498 16.6667 9.01692Z" fill="#FF9118"/>
<path d="M25.1962 10.7292C24.9386 10.7292 24.7297 10.938 24.7297 11.1956V11.6621C24.7297 11.9197 24.9386 12.1286 25.1962 12.1286C25.4538 12.1286 25.6627 11.9197 25.6627 11.6621V11.1956C25.6627 10.938 25.4538 10.7292 25.1962 10.7292Z" fill="#FF9118"/>
<path d="M27.1755 10.6489L26.8457 10.3191C26.6604 10.1401 26.3651 10.1452 26.1861 10.3305C26.0115 10.5113 26.0115 10.7979 26.1861 10.9787L26.5159 11.3085C26.7012 11.4875 26.9965 11.4824 27.1755 11.2971C27.3502 11.1163 27.3502 10.8297 27.1755 10.6489Z" fill="#FF9118"/>
<path d="M27.5287 8.86322H27.0622C26.8046 8.86322 26.5957 9.07209 26.5957 9.3297C26.5957 9.58732 26.8046 9.79619 27.0622 9.79619H27.5287C27.7863 9.79619 27.9952 9.58732 27.9952 9.3297C27.9952 9.07209 27.7863 8.86322 27.5287 8.86322Z" fill="#FF9118"/>
<path d="M27.1644 7.35088C26.9836 7.17629 26.697 7.17629 26.5162 7.35088L26.1864 7.68068C26.0042 7.8629 26.0043 8.15825 26.1865 8.34041C26.274 8.42782 26.3926 8.47697 26.5162 8.47697C26.6399 8.47697 26.7585 8.42776 26.846 8.34029L27.1758 8.01049C27.3548 7.82518 27.3497 7.52983 27.1644 7.35088Z" fill="#FF9118"/>
<path d="M25.1962 6.53079C24.9386 6.53079 24.7297 6.73966 24.7297 6.99728V7.46376C24.7297 7.72138 24.9386 7.93025 25.1962 7.93025C25.4538 7.93025 25.6627 7.72138 25.6627 7.46376V6.99728C25.6627 6.73966 25.4538 6.53079 25.1962 6.53079Z" fill="#FF9118"/>
<path d="M24.2063 7.68067L23.8765 7.35087C23.6912 7.17191 23.3959 7.17698 23.2169 7.36229C23.0423 7.54306 23.0423 7.82965 23.2169 8.01048L23.5467 8.34028C23.732 8.51929 24.0273 8.51416 24.2063 8.32885C24.381 8.14803 24.381 7.86143 24.2063 7.68067Z" fill="#FF9118"/>
<path d="M5.58116 2.01708C5.52623 1.84833 5.38028 1.72541 5.20471 1.69987L3.83558 1.50069L3.22495 0.260302C3.08885 0.0292175 2.79117 -0.0478109 2.56009 0.0882861C2.48907 0.130095 2.42988 0.18928 2.38807 0.260302L1.77465 1.50069L0.405512 1.69987C0.15052 1.73667 -0.0263361 1.97324 0.0104579 2.22823C0.0250939 2.32975 0.0727919 2.42357 0.146147 2.49523L1.13649 3.46086L0.903252 4.82439C0.858469 5.0781 1.0278 5.32009 1.28151 5.36487C1.38367 5.38289 1.48887 5.36639 1.58059 5.31793L2.80511 4.67232L4.02963 5.31607C4.25769 5.43595 4.53973 5.34831 4.65962 5.12026C4.70738 5.02947 4.72382 4.9255 4.7065 4.82439L4.47326 3.46086L5.46408 2.49523C5.5909 2.37109 5.63627 2.18578 5.58116 2.01708ZM3.64478 2.96405C3.53493 3.07105 3.48472 3.22522 3.51044 3.37642L3.62612 4.05049L3.02203 3.73188C2.88622 3.66057 2.724 3.66057 2.5882 3.73188L1.98176 4.05003L2.09745 3.37596C2.12363 3.22534 2.0743 3.0714 1.96544 2.96405L1.47516 2.48683L2.15203 2.38841C2.30399 2.36637 2.43536 2.27091 2.50329 2.13324L2.80511 1.52074L3.10739 2.13324C3.17527 2.27079 3.30641 2.36619 3.45819 2.38841L4.13459 2.48683L3.64478 2.96405Z" fill="#FF9118"/>
<path d="M26.4193 23.3826H26.4174L26.2252 23.0943C25.1476 21.4827 23.453 20.387 21.5412 20.0654C21.2862 20.029 21.0499 20.2063 21.0135 20.4613C20.9784 20.7077 21.1429 20.9384 21.3873 20.9853C22.7662 21.2194 24.0229 21.9199 24.947 22.9697C24.1701 23.1095 23.4905 23.5762 23.0811 24.2512C22.5787 25.1509 22.9009 26.2876 23.8007 26.79C24.7004 27.2924 25.8371 26.9702 26.3395 26.0704C26.5314 25.7 26.635 25.2901 26.6422 24.873C27.1386 25.5939 27.1783 26.5353 26.7444 27.2954C26.613 27.517 26.686 27.8032 26.9076 27.9346C27.1292 28.0661 27.4154 27.993 27.5468 27.7714C27.551 27.7643 27.555 27.7571 27.5589 27.7498C28.413 26.2242 27.9099 24.2963 26.4193 23.3826ZM25.5259 25.6152C25.277 26.0663 24.7094 26.2302 24.2583 25.9812C23.8072 25.7322 23.6433 25.1647 23.8923 24.7136C23.8937 24.7111 23.8951 24.7085 23.8965 24.706C24.1718 24.2552 24.6361 23.9531 25.1598 23.884C25.2409 23.8818 25.3212 23.9005 25.393 23.9381C25.7867 24.1579 25.8077 25.1104 25.5259 25.6152Z" fill="#FF9118"/>
</svg>
