<svg width="35" height="35" viewBox="0 0 35 35" fill="none" xmlns="http://www.w3.org/2000/svg">
<g clip-path="url(#clip0)">
<path d="M29.1667 17.0205V3.5C29.1667 2.5335 28.3832 1.75 27.4167 1.75H26.8333C26.8333 0.783502 26.0498 0 25.0833 0C24.1168 0 23.3333 0.783502 23.3333 1.75H5.83333C5.83333 0.783502 5.04983 2.33333e-08 4.08333 2.33333e-08C3.11684 2.33333e-08 2.33333 0.783502 2.33333 1.75H1.75C0.783502 1.75 0 2.5335 0 3.5V26.25C0 27.2165 0.783502 28 1.75 28H16.6408C17.7391 32.2549 21.6582 35.1661 26.049 34.9886C30.4398 34.811 34.1112 31.5929 34.8624 27.2633C35.6136 22.9336 33.241 18.6668 29.1667 17.0205ZM24.5 1.75C24.5 1.42783 24.7612 1.16667 25.0833 1.16667C25.4055 1.16667 25.6667 1.42783 25.6667 1.75V2.91667C25.6667 3.23883 25.4055 3.5 25.0833 3.5C24.7612 3.5 24.5 3.23883 24.5 2.91667V1.75ZM3.5 1.75C3.5 1.42783 3.76117 1.16667 4.08333 1.16667C4.4055 1.16667 4.66667 1.42783 4.66667 1.75V2.91667C4.66667 3.23883 4.4055 3.5 4.08333 3.5C3.76117 3.5 3.5 3.23883 3.5 2.91667V1.75ZM1.75 26.8333C1.42783 26.8333 1.16667 26.5722 1.16667 26.25V3.5C1.16667 3.17783 1.42783 2.91667 1.75 2.91667H2.33333C2.33333 3.88317 3.11684 4.66667 4.08333 4.66667C5.04983 4.66667 5.83333 3.88317 5.83333 2.91667H23.3333C23.3333 3.88317 24.1168 4.66667 25.0833 4.66667C26.0498 4.66667 26.8333 3.88317 26.8333 2.91667H27.4167C27.7388 2.91667 28 3.17783 28 3.5V16.6408C25.4014 15.9523 22.6316 16.4327 20.4167 17.9562V17.5C20.4167 16.8557 19.8943 16.3333 19.25 16.3333H16.3333C15.689 16.3333 15.1667 16.8557 15.1667 17.5V19.25C15.1667 19.8943 15.689 20.4167 16.3333 20.4167H17.9562C16.6614 22.2891 16.1117 24.5771 16.4144 26.8333H1.75ZM18.9064 19.25H16.3333V17.5H19.25V18.9064C19.1333 19.0167 19.0167 19.1333 18.9064 19.25ZM25.6667 33.8333C22.3636 33.8333 19.3857 31.8436 18.1217 28.7919C16.8576 25.7402 17.5563 22.2276 19.892 19.892C22.2276 17.5563 25.7402 16.8576 28.7919 18.1217C31.8436 19.3857 33.8333 22.3636 33.8333 25.6667C33.8285 30.175 30.175 33.8285 25.6667 33.8333Z" fill="white"/>
<path d="M25.0733 19.25C25.0143 18.9336 24.7102 18.7248 24.3938 18.7833C22.0154 19.2327 20.0336 20.8701 19.1437 23.121C19.0866 23.2654 19.0893 23.4266 19.1514 23.5689C19.2135 23.7113 19.3298 23.823 19.4745 23.8793C19.5421 23.906 19.6141 23.9197 19.6868 23.9196C19.9268 23.9196 20.1423 23.7726 20.2299 23.5492C20.9712 21.6728 22.6227 20.3076 24.6049 19.9325C24.7578 19.9046 24.8932 19.8169 24.9812 19.6887C25.0691 19.5606 25.1023 19.4027 25.0733 19.25Z" fill="white"/>
<path d="M6.41659 5.83334H3.49992C2.85559 5.83334 2.33325 6.35567 2.33325 7V8.75001C2.33325 9.39434 2.85559 9.91668 3.49992 9.91668H6.41659C7.06092 9.91668 7.58325 9.39434 7.58325 8.75001V7C7.58325 6.35567 7.06092 5.83334 6.41659 5.83334ZM3.49992 8.75001V7H6.41659V8.75001H3.49992Z" fill="white"/>
<path d="M12.8333 5.83334H9.91667C9.27233 5.83334 8.75 6.35567 8.75 7V8.75001C8.75 9.39434 9.27233 9.91668 9.91667 9.91668H12.8333C13.4777 9.91668 14 9.39434 14 8.75001V7C14 6.35567 13.4777 5.83334 12.8333 5.83334ZM9.91667 8.75001V7H12.8333V8.75001H9.91667Z" fill="white"/>
<path d="M16.3334 9.91668H19.2501C19.8944 9.91668 20.4168 9.39434 20.4168 8.75001V7C20.4168 6.35567 19.8944 5.83334 19.2501 5.83334H16.3334C15.6891 5.83334 15.1667 6.35567 15.1667 7V8.75001C15.1667 9.39434 15.6891 9.91668 16.3334 9.91668ZM16.3334 7H19.2501V8.75001H16.3334V7Z" fill="white"/>
<path d="M22.7499 9.91668H25.6666C26.3109 9.91668 26.8333 9.39434 26.8333 8.75001V7C26.8333 6.35567 26.3109 5.83334 25.6666 5.83334H22.7499C22.1056 5.83334 21.5833 6.35567 21.5833 7V8.75001C21.5833 9.39434 22.1056 9.91668 22.7499 9.91668ZM22.7499 7H25.6666V8.75001H22.7499V7Z" fill="white"/>
<path d="M6.41659 11.0833H3.49992C2.85559 11.0833 2.33325 11.6057 2.33325 12.25V14C2.33325 14.6443 2.85559 15.1667 3.49992 15.1667H6.41659C7.06092 15.1667 7.58325 14.6443 7.58325 14V12.25C7.58325 11.6057 7.06092 11.0833 6.41659 11.0833ZM3.49992 14V12.25H6.41659V14H3.49992Z" fill="white"/>
<path d="M12.8333 11.0833H9.91667C9.27233 11.0833 8.75 11.6057 8.75 12.25V14C8.75 14.6443 9.27233 15.1667 9.91667 15.1667H12.8333C13.4777 15.1667 14 14.6443 14 14V12.25C14 11.6057 13.4777 11.0833 12.8333 11.0833ZM9.91667 14V12.25H12.8333V14H9.91667Z" fill="white"/>
<path d="M16.3334 15.1667H19.2501C19.8944 15.1667 20.4168 14.6443 20.4168 14V12.25C20.4168 11.6057 19.8944 11.0833 19.2501 11.0833H16.3334C15.6891 11.0833 15.1667 11.6057 15.1667 12.25V14C15.1667 14.6443 15.6891 15.1667 16.3334 15.1667ZM16.3334 12.25H19.2501V14H16.3334V12.25Z" fill="white"/>
<path d="M22.7499 15.1667H25.6666C26.3109 15.1667 26.8333 14.6443 26.8333 14V12.25C26.8333 11.6057 26.3109 11.0833 25.6666 11.0833H22.7499C22.1056 11.0833 21.5833 11.6057 21.5833 12.25V14C21.5833 14.6443 22.1056 15.1667 22.7499 15.1667ZM22.7499 12.25H25.6666V14H22.7499V12.25Z" fill="white"/>
<path d="M6.41659 16.3333H3.49992C2.85559 16.3333 2.33325 16.8557 2.33325 17.5V19.25C2.33325 19.8943 2.85559 20.4167 3.49992 20.4167H6.41659C7.06092 20.4167 7.58325 19.8943 7.58325 19.25V17.5C7.58325 16.8557 7.06092 16.3333 6.41659 16.3333ZM3.49992 19.25V17.5H6.41659V19.25H3.49992Z" fill="white"/>
<path d="M12.8333 16.3333H9.91667C9.27233 16.3333 8.75 16.8557 8.75 17.5V19.25C8.75 19.8943 9.27233 20.4167 9.91667 20.4167H12.8333C13.4777 20.4167 14 19.8943 14 19.25V17.5C14 16.8557 13.4777 16.3333 12.8333 16.3333ZM9.91667 19.25V17.5H12.8333V19.25H9.91667Z" fill="white"/>
<path d="M6.41659 21.5833H3.49992C2.85559 21.5833 2.33325 22.1057 2.33325 22.75V24.5C2.33325 25.1443 2.85559 25.6667 3.49992 25.6667H6.41659C7.06092 25.6667 7.58325 25.1443 7.58325 24.5V22.75C7.58325 22.1057 7.06092 21.5833 6.41659 21.5833ZM3.49992 24.5V22.75H6.41659V24.5H3.49992Z" fill="white"/>
<path d="M12.8333 21.5833H9.91667C9.27233 21.5833 8.75 22.1057 8.75 22.75V24.5C8.75 25.1443 9.27233 25.6667 9.91667 25.6667H12.8333C13.4777 25.6667 14 25.1443 14 24.5V22.75C14 22.1057 13.4777 21.5833 12.8333 21.5833ZM9.91667 24.5V22.75H12.8333V24.5H9.91667Z" fill="white"/>
<path d="M29.4584 21.077C29.1788 20.9173 28.8226 21.0144 28.6627 21.294L24.3723 28.7974L22.5792 27.0042C22.3503 26.7832 21.9864 26.7863 21.7614 27.0114C21.5364 27.2364 21.5333 27.6002 21.7543 27.8291L24.0877 30.1624C24.2162 30.2909 24.3973 30.3521 24.5775 30.328C24.7576 30.3038 24.9162 30.1971 25.0064 30.0393L29.6731 21.8727C29.8332 21.5936 29.7371 21.2377 29.4584 21.077Z" fill="white"/>
<path d="M19.2501 26.25C19.5722 26.25 19.8334 25.9888 19.8334 25.6667C19.8334 25.3445 19.5722 25.0833 19.2501 25.0833C18.9279 25.0833 18.6667 25.3445 18.6667 25.6667C18.6667 25.9888 18.9279 26.25 19.2501 26.25Z" fill="white"/>
</g>
<defs>
<clipPath id="clip0">
<rect width="35" height="35" fill="white"/>
</clipPath>
</defs>
</svg>
