<svg width="20" height="22" viewBox="0 0 20 22" fill="none" xmlns="http://www.w3.org/2000/svg">
<path d="M19.5 9.5483C19.4994 9.5478 19.499 9.54714 19.4985 9.54665L11.3401 0.708678C10.9923 0.331785 10.53 0.124329 10.0382 0.124329C9.54639 0.124329 9.08405 0.331785 8.73615 0.708678L0.581992 9.54218C0.579245 9.54516 0.576346 9.5483 0.573752 9.55128C-0.140361 10.3294 -0.13914 11.5918 0.577262 12.3679C0.904563 12.7226 1.33669 12.9279 1.79888 12.9496C1.8178 12.9516 1.83672 12.9526 1.8558 12.9526H2.18081V19.4566C2.18081 20.7438 3.14761 21.791 4.33581 21.791H7.52765C7.85129 21.791 8.11359 21.5067 8.11359 21.1563V16.057C8.11359 15.4696 8.55472 14.9919 9.09687 14.9919H10.9795C11.5216 14.9919 11.9626 15.4696 11.9626 16.057V21.1563C11.9626 21.5067 12.2249 21.791 12.5486 21.791H15.7404C16.9288 21.791 17.8954 20.7438 17.8954 19.4566V12.9526H18.1969C18.6886 12.9526 19.1509 12.7451 19.499 12.3681C20.2161 11.5908 20.2164 10.3261 19.5 9.5483ZM18.6703 11.4705C18.5438 11.6075 18.3756 11.683 18.1969 11.683H17.3095C16.9858 11.683 16.7235 11.9672 16.7235 12.3178V19.4566C16.7235 20.0438 16.2826 20.5215 15.7404 20.5215H13.1345V16.057C13.1345 14.7698 12.1679 13.7224 10.9795 13.7224H9.09687C7.90851 13.7224 6.94171 14.7698 6.94171 16.057V20.5215H4.33581C3.79382 20.5215 3.35269 20.0438 3.35269 19.4566V12.3178C3.35269 11.9672 3.09039 11.683 2.76675 11.683H1.89456C1.8854 11.6824 1.8764 11.6819 1.86709 11.6817C1.69253 11.6784 1.5288 11.6034 1.40612 11.4703C1.14519 11.1876 1.14519 10.7276 1.40612 10.4447C1.40627 10.4447 1.40627 10.4446 1.40643 10.4444L1.40688 10.4439L9.56501 1.60628C9.69135 1.46924 9.85935 1.39386 10.0382 1.39386C10.2169 1.39386 10.3849 1.46924 10.5114 1.60628L18.6677 10.4421C18.6689 10.4434 18.6703 10.4447 18.6715 10.4461C18.931 10.7292 18.9306 11.1883 18.6703 11.4705Z" fill="white"/>
</svg>
