<svg width="12" height="15" viewBox="0 0 12 15" fill="none" xmlns="http://www.w3.org/2000/svg">
<path d="M9.84375 5.625H9.375V3.75C9.375 1.68187 7.69312 0 5.625 0C3.55687 0 1.875 1.68187 1.875 3.75V5.625H1.40625C0.63125 5.625 0 6.25562 0 7.03125V13.5938C0 14.3694 0.63125 15 1.40625 15H9.84375C10.6187 15 11.25 14.3694 11.25 13.5938V7.03125C11.25 6.25562 10.6187 5.625 9.84375 5.625ZM3.125 3.75C3.125 2.37125 4.24625 1.25 5.625 1.25C7.00375 1.25 8.125 2.37125 8.125 3.75V5.625H3.125V3.75ZM6.25 10.4513V11.875C6.25 12.22 5.97062 12.5 5.625 12.5C5.27938 12.5 5 12.22 5 11.875V10.4513C4.62813 10.2344 4.375 9.83562 4.375 9.375C4.375 8.68563 4.93563 8.125 5.625 8.125C6.31437 8.125 6.875 8.68563 6.875 9.375C6.875 9.83562 6.62187 10.2344 6.25 10.4513Z" fill="#313131"/>
</svg>
