<svg width="35" height="35" viewBox="0 0 35 35" fill="none" xmlns="http://www.w3.org/2000/svg">
<g clip-path="url(#clip0)">
<path d="M8.59253 8.61287C8.21519 8.61287 7.90894 8.91912 7.90894 9.29646C7.90894 9.67381 8.21519 9.98006 8.59253 9.98006C8.96988 9.98006 9.27613 9.67381 9.27613 9.29646C9.27613 8.91912 8.96988 8.61287 8.59253 8.61287Z" fill="white"/>
<path d="M14.7445 21.3954H12.6939V19.3447C12.6939 18.9673 12.3878 18.6612 12.0103 18.6612C11.6328 18.6612 11.3268 18.9673 11.3268 19.3447V21.3954H9.27612C8.89864 21.3954 8.59253 21.7015 8.59253 22.0789C8.59253 22.4563 8.89864 22.7625 9.27612 22.7625H11.3268V24.8132C11.3268 25.1906 11.6329 25.4967 12.0103 25.4967C12.3877 25.4967 12.6939 25.1906 12.6939 24.8132V22.7625H14.7445C15.122 22.7625 15.4281 22.4564 15.4281 22.0789C15.4281 21.7014 15.1221 21.3954 14.7445 21.3954Z" fill="white"/>
<path d="M33.1937 22.0106C31.6827 19.3934 28.3415 18.4977 25.7238 20.0091L22.9472 21.6122V15.6761C22.9472 14.9423 22.7045 14.214 22.2637 13.6255L18.8459 9.06855V7.12811C19.6415 6.84592 20.213 6.08617 20.213 5.19497V2.05064C20.2129 0.919912 19.293 0 18.1623 0H5.85819C4.72746 0 3.80748 0.919912 3.80748 2.05064V5.19504C3.80748 6.0861 4.37903 6.84599 5.1746 7.12817V9.06862L1.75656 13.6258C1.31592 14.2141 1.07324 14.9423 1.07324 15.6761V28.9146C1.07324 30.7992 2.60647 32.3323 4.49101 32.3323H15.4765C17.0092 34.9015 20.3141 35.7613 22.9047 34.2655L31.1923 29.4805C33.7869 27.9822 34.7124 24.6421 33.1937 22.0106ZM5.1746 2.05064C5.1746 1.67371 5.48126 1.36705 5.85813 1.36705H18.1622C18.5391 1.36705 18.8458 1.67371 18.8458 2.05064V5.19504C18.8458 5.57197 18.5391 5.87856 18.1622 5.87856H5.85819C5.48126 5.87856 5.17467 5.5719 5.17467 5.19504V2.05064H5.1746ZM2.85059 14.4456L6.405 9.70655C6.49373 9.58829 6.54172 9.44433 6.54172 9.2964V7.24575H17.4787V8.61287H11.3267C10.9492 8.61287 10.6431 8.91898 10.6431 9.29646C10.6431 9.67395 10.9492 9.98006 11.3267 9.98006H17.8205L21.1696 14.4454C21.3885 14.7377 21.5245 15.0873 21.5655 15.4485H2.45492C2.49594 15.0873 2.6319 14.7376 2.85059 14.4456ZM4.49107 30.9652C3.36034 30.9652 2.44043 30.0453 2.44043 28.9146V28.2242H14.8596C14.6429 29.1105 14.6443 30.0571 14.8925 30.9653H4.49107V30.9652ZM15.3958 26.8639H2.44036V16.8155H21.58V22.4014L17.4362 24.7941C16.5722 25.2932 15.8738 26.0036 15.3958 26.8639ZM22.2212 33.0815C20.2595 34.2143 17.7528 33.5444 16.6193 31.5813C15.4803 29.5993 16.1705 27.1039 18.1199 25.9779L21.8302 23.8357L25.9316 30.9392L22.2212 33.0815ZM30.5087 28.2966L27.1156 30.2557L23.0141 23.152L26.4074 21.1931C28.3704 20.0599 30.8762 20.7309 32.0098 22.6941C33.1483 24.6671 32.4559 27.1722 30.5087 28.2966Z" fill="white"/>
</g>
<defs>
<clipPath id="clip0">
<rect width="35" height="35" fill="white"/>
</clipPath>
</defs>
</svg>
