<svg width="20" height="20" viewBox="0 0 20 20" fill="none" xmlns="http://www.w3.org/2000/svg">
<g clip-path="url(#clip0)">
<path d="M17.5861 15.9161C17.5273 15.878 17.0849 15.568 16.6418 14.6303C15.8282 12.9084 15.6574 10.4827 15.6574 8.75098C15.6574 8.74344 15.6572 8.73598 15.657 8.72848C15.6481 6.43984 14.2777 4.46695 12.3166 3.58176V2.22797C12.3166 0.999453 11.3188 0 10.0923 0H9.90794C8.68146 0 7.68365 0.999453 7.68365 2.22797V3.58168C5.71599 4.46973 4.34283 6.45269 4.34283 8.75098C4.34283 10.4827 4.17205 12.9083 3.35841 14.6303C2.9154 15.568 2.47294 15.8779 2.41412 15.9161C2.16638 16.0308 2.04423 16.2956 2.10122 16.564C2.15876 16.8351 2.41212 17.022 2.6888 17.022H6.98361C7.00759 18.6681 8.35111 20 10.0001 20C11.6492 20 12.9927 18.6681 13.0167 17.022H17.3115C17.5881 17.022 17.8415 16.8351 17.899 16.564C17.956 16.2956 17.8338 16.0307 17.5861 15.9161ZM8.85556 2.22797C8.85556 1.64668 9.32767 1.17379 9.90798 1.17379H10.0923C10.6726 1.17379 11.1447 1.64668 11.1447 2.22797V3.20129C10.7749 3.12484 10.392 3.08461 9.99998 3.08461C9.60802 3.08461 9.22529 3.1248 8.8556 3.20117V2.22797H8.85556ZM10.0001 18.8262C8.99728 18.8262 8.17927 18.0209 8.15548 17.022H11.8447C11.821 18.0208 11.003 18.8262 10.0001 18.8262ZM12.3595 15.8481C12.3594 15.8481 4.02415 15.8481 4.02415 15.8481C4.12552 15.6902 4.22869 15.5113 4.33122 15.3091C5.11654 13.7606 5.51474 11.5541 5.51474 8.75098C5.51474 6.27375 7.52681 4.2584 9.99994 4.2584C12.4731 4.2584 14.4851 6.27375 14.4851 8.75293C14.4851 8.76016 14.4852 8.76734 14.4855 8.77453C14.4877 11.5664 14.8859 13.765 15.669 15.3091C15.7716 15.5113 15.8748 15.6902 15.9761 15.8481H12.3595Z" fill="#7A7A7A"/>
</g>
<defs>
<clipPath id="clip0">
<rect width="20" height="20" fill="white"/>
</clipPath>
</defs>
</svg>
