<svg width="35" height="35" viewBox="0 0 35 35" fill="none" xmlns="http://www.w3.org/2000/svg">
<g clip-path="url(#clip0)">
<path d="M23.4052 18.5494C21.8303 16.0925 19.148 14.6254 16.2299 14.6254C13.312 14.6254 10.6295 16.0925 9.0548 18.5494L5.25978 24.4697C4.63013 25.4521 4.3396 26.5867 4.41944 27.7507C4.49928 28.9149 4.94228 29.9991 5.70038 30.8864C6.45901 31.7735 7.46143 32.3796 8.59924 32.6397C9.73705 32.8995 10.9034 32.7887 11.9721 32.319L12.0418 32.288C14.731 31.1289 17.8048 31.1393 20.4874 32.319C21.1792 32.6232 21.9122 32.777 22.6519 32.777C23.0541 32.777 23.4586 32.7313 23.8594 32.64C24.9972 32.3802 25.9996 31.774 26.7585 30.8869C27.5169 29.9999 27.9602 28.9155 28.0403 27.7512C28.1204 26.5867 27.8299 25.4521 27.2002 24.4694L23.4052 18.5494ZM25.1994 29.5534C24.2341 30.6819 22.6725 31.0386 21.3133 30.441C19.6978 29.7304 17.9637 29.3753 16.2291 29.3753C14.496 29.3753 12.7622 29.7302 11.1478 30.4399L11.1018 30.4602C9.75308 31.0306 8.21446 30.6693 7.25983 29.5534C6.29559 28.4247 6.18584 26.8268 6.98692 25.5768L10.7822 19.6565C11.978 17.7911 14.0143 16.6773 16.2299 16.6773C18.4454 16.6773 20.482 17.7911 21.678 19.6565L25.4728 25.5765C26.2742 26.827 26.1641 28.4252 25.1994 29.5534Z" fill="white"/>
<path d="M6.28139 18.5417C7.41039 18.108 8.26809 17.1983 8.69667 15.9798C9.10415 14.8204 9.07078 13.5114 8.60214 12.2937C8.13324 11.0769 7.28035 10.0835 6.20075 9.49635C5.06614 8.87978 3.81992 8.77938 2.69279 9.21383C0.425184 10.0857 -0.615427 12.8879 0.373381 15.4618C1.16325 17.5104 3.00548 18.8036 4.86801 18.8036C5.34359 18.8036 5.8205 18.7193 6.28139 18.5417ZM2.28798 14.7248C1.70532 13.208 2.21721 11.5947 3.42979 11.1284C3.64876 11.044 3.88027 11.0021 4.11659 11.0021C4.48135 11.0021 4.85813 11.1017 5.22075 11.2991C5.87284 11.6534 6.39381 12.2686 6.68754 13.031C6.98101 13.7939 7.00718 14.5993 6.76098 15.2992C6.53534 15.9406 6.10355 16.4121 5.54546 16.6266L5.54439 16.6271C4.33342 17.0939 2.8725 16.2402 2.28798 14.7248Z" fill="white"/>
<path d="M13.6455 13.9034C16.4802 13.9034 18.7866 11.2758 18.7866 8.04611C18.7866 4.8156 16.4802 2.1875 13.6455 2.1875C10.8109 2.1875 8.50488 4.8156 8.50488 8.04611C8.50488 11.2758 10.8109 13.9034 13.6455 13.9034ZM13.6455 4.23908C15.3488 4.23908 16.735 5.947 16.735 8.04611C16.735 10.1444 15.3488 11.8518 13.6455 11.8518C11.9421 11.8518 10.5565 10.1444 10.5565 8.04611C10.5565 5.947 11.9421 4.23908 13.6455 4.23908Z" fill="white"/>
<path d="M22.524 15.3424H22.5243C22.9604 15.4871 23.4052 15.5563 23.8482 15.5563C25.9156 15.5563 27.9303 14.0516 28.6991 11.7391C29.1418 10.408 29.1127 9.00048 28.6171 7.77615C28.0985 6.49468 27.1375 5.56435 25.9108 5.15633C24.684 4.74885 23.3566 4.91868 22.174 5.63485C21.0442 6.31924 20.1785 7.42901 19.7365 8.76015C18.8033 11.5682 20.0538 14.521 22.524 15.3424ZM21.6834 9.40716C21.9721 8.53798 22.5238 7.82181 23.237 7.38976C23.8968 6.99002 24.6167 6.88828 25.2638 7.10324C25.9105 7.31846 26.4259 7.83063 26.7153 8.54573C27.028 9.31851 27.0414 10.2227 26.7522 11.0918C26.1757 12.8265 24.5692 13.8599 23.1713 13.3955C21.7745 12.9309 21.1069 11.1418 21.6834 9.40716Z" fill="white"/>
<path d="M33.3508 14.6588L33.35 14.658C31.3951 13.2139 28.4714 13.8398 26.8322 16.054C25.1945 18.2693 25.4506 21.2475 27.4025 22.6926C28.1144 23.22 28.9556 23.4721 29.8165 23.4721C31.3169 23.4721 32.8779 22.7063 33.9212 21.2979C35.5589 19.0827 35.3031 16.1045 33.3508 14.6588ZM32.2723 20.0774C31.3043 21.3839 29.6677 21.8173 28.6234 21.0437C27.5798 20.2712 27.5163 18.5799 28.4816 17.2741C29.1233 16.4073 30.0605 15.9251 30.9244 15.9251C31.3612 15.9251 31.7794 16.0484 32.1308 16.3082C33.1735 17.0816 33.2368 18.7724 32.2723 20.0774Z" fill="white"/>
</g>
<defs>
<clipPath id="clip0">
<rect width="35" height="35" fill="white"/>
</clipPath>
</defs>
</svg>
