<svg width="22" height="22" viewBox="0 0 22 22" fill="none" xmlns="http://www.w3.org/2000/svg">
<g clip-path="url(#clip0)">
<path d="M17.1096 6.23772C16.3179 5.86555 15.3412 6.01693 14.4111 6.65685C13.9768 6.95551 13.5316 7.4019 13.2828 7.78792C12.7904 8.54997 12.6647 9.35794 12.938 9.98742C13.0926 10.3441 13.3387 10.5822 13.6627 10.6922C13.8897 10.7692 14.2421 10.8161 14.5063 10.8043C15.2071 10.7743 15.948 10.4542 16.5641 9.91575C16.7752 9.73101 16.8723 9.62949 17.0651 9.38919C17.4355 8.9309 17.6437 8.54656 17.7456 8.13895C17.9003 7.5188 17.8074 6.95522 17.484 6.54818C17.3946 6.43684 17.2157 6.28909 17.1096 6.23772Z" fill="#313131"/>
<path d="M12.8613 2.87561C12.4423 2.64648 11.8559 2.66723 11.3041 2.93042C11.003 3.07368 10.7687 3.25537 10.4672 3.57993C10.3346 3.72165 10.1449 3.96752 10.0388 4.13228C9.43771 5.06793 9.23862 6.10464 9.4934 6.98064C9.54423 7.15637 9.65708 7.41196 9.75158 7.5635C9.81852 7.67083 9.83915 7.69377 9.93831 7.78175C10.0704 7.89793 10.1787 7.9635 10.3302 8.02024C10.5649 8.10823 10.7943 8.13394 11.0559 8.10115C11.574 8.0362 12.1056 7.73639 12.5661 7.25065C12.7555 7.04992 12.9944 6.71703 13.151 6.43191C13.7891 5.2772 13.835 4.07758 13.2741 3.25783C13.1617 3.09493 13.0188 2.96223 12.8613 2.87561Z" fill="#313131"/>
<path d="M16.9794 11.917C16.2855 11.5284 15.4022 11.5361 14.5287 11.94C14.1262 12.1267 13.8461 12.3166 13.47 12.6608C13.3357 12.784 13.2892 12.834 13.1591 12.995C12.9999 13.192 12.932 13.2983 12.8426 13.4891C12.6023 14.0008 12.5683 14.548 12.7507 14.9506C12.8503 15.1704 12.9781 15.3254 13.1634 15.4486C13.6123 15.7488 14.1435 15.8541 14.763 15.7662C15.4461 15.6687 16.137 15.3285 16.6806 14.8238C16.8163 14.6987 17.0575 14.4303 17.1437 14.3105C17.586 13.6943 17.7003 12.9303 17.4296 12.3984C17.3245 12.1929 17.1647 12.0214 16.9794 11.917Z" fill="#313131"/>
<path d="M7.34429 4.53909C6.89197 4.28776 6.32573 4.30598 5.89501 4.58718C5.74258 4.68627 5.55076 4.84902 5.39367 5.01167C4.8236 5.60135 4.45853 6.49294 4.43763 7.34649C4.42257 7.98402 4.59297 8.57107 4.93079 9.04609C5.21541 9.44523 5.6234 9.61533 6.13816 9.5508C6.59759 9.4932 7.0286 9.21537 7.43195 8.71637C7.58885 8.52226 7.66546 8.40884 7.77807 8.20242C8.16591 7.49518 8.3063 6.63175 8.15727 5.87099C8.08881 5.52133 7.93505 5.1262 7.7921 4.93394C7.67978 4.78209 7.50636 4.62939 7.34429 4.53909Z" fill="#313131"/>
<path d="M10.2064 10.671C9.85943 10.4516 9.47474 10.2862 9.05174 10.1776C8.40438 10.0128 7.65708 10.0052 7.04584 10.1593C5.72637 10.4924 4.54438 11.0524 3.68136 11.7528C3.62832 11.7961 3.54566 11.8592 3.49784 11.8941C3.25079 12.0748 3.04957 12.3443 2.9444 12.6366C2.77503 13.1071 2.82079 13.6153 3.06612 14.0109C3.21287 14.2469 3.51894 14.4928 3.91858 14.6937C4.17831 14.8253 4.38858 14.9045 5.00503 15.1038C5.86375 15.3799 6.08415 15.4782 6.55878 15.7914C6.77095 15.9316 6.80726 15.9594 6.93463 16.0796C7.2612 16.3858 7.472 16.6861 7.81814 17.3354C8.1248 17.9105 8.29896 18.2281 8.34927 18.3001C8.84933 19.0237 9.69307 19.3128 10.332 18.9791C10.6124 18.8316 10.9211 18.4721 11.1215 18.0564C11.316 17.6517 11.5244 16.9073 11.5973 16.3511C11.8044 14.7807 11.8182 13.8259 11.6475 12.9521C11.4865 12.1316 11.2282 11.5955 10.7615 11.1197C10.6303 10.9855 10.3679 10.7733 10.2064 10.671Z" fill="#313131"/>
</g>
<defs>
<clipPath id="clip0">
<rect width="15" height="15" fill="white" transform="translate(9.42944) rotate(38.9492)"/>
</clipPath>
</defs>
</svg>
