<svg width="28" height="28" viewBox="0 0 28 28" fill="none" xmlns="http://www.w3.org/2000/svg">
<g clip-path="url(#clip0)">
<path d="M18.7241 14.8395C17.4642 12.874 15.3183 11.7003 12.9838 11.7003C10.6496 11.7003 8.50352 12.874 7.24379 14.8395L4.20778 19.5758C3.70405 20.3617 3.47163 21.2694 3.53551 22.2006C3.59938 23.132 3.95378 23.9993 4.56025 24.7091C5.16716 25.4188 5.9691 25.9037 6.87935 26.1118C7.78959 26.3196 8.7227 26.231 9.57762 25.8552L9.63338 25.8304C11.7848 24.9031 14.2438 24.9114 16.3898 25.8552C16.9433 26.0985 17.5297 26.2216 18.1215 26.2216C18.4432 26.2216 18.7668 26.1851 19.0875 26.112C19.9977 25.9041 20.7997 25.4192 21.4068 24.7096C22.0135 23.9999 22.3681 23.1324 22.4322 22.201C22.4963 21.2694 22.2638 20.3617 21.7601 19.5756L18.7241 14.8395ZM20.1594 23.6427C19.3872 24.5455 18.1379 24.8309 17.0506 24.3528C15.7582 23.7844 14.3709 23.5002 12.9832 23.5002C11.5968 23.5002 10.2097 23.7841 8.91817 24.352L8.88142 24.3682C7.80241 24.8245 6.57152 24.5355 5.80781 23.6427C5.03642 22.7397 4.94862 21.4614 5.58949 20.4615L8.62572 15.7252C9.58232 14.2328 11.2114 13.3418 12.9838 13.3418C14.7563 13.3418 16.3856 14.2328 17.3424 15.7252L20.3782 20.4612C21.0193 21.4616 20.9313 22.7402 20.1594 23.6427Z" fill="#FF9118"/>
<path d="M5.02502 14.8333C5.92822 14.4864 6.61437 13.7586 6.95724 12.7838C7.28323 11.8563 7.25652 10.8091 6.88161 9.83499C6.50649 8.86151 5.82418 8.06683 4.9605 7.59708C4.05282 7.10382 3.05584 7.0235 2.15414 7.37106C0.34005 8.06854 -0.492439 10.3103 0.298607 12.3694C0.930504 14.0083 2.40429 15.0429 3.89431 15.0429C4.27477 15.0429 4.6563 14.9754 5.02502 14.8333ZM1.83028 11.7798C1.36416 10.5664 1.77367 9.27573 2.74374 8.90274C2.91891 8.83524 3.10412 8.8017 3.29317 8.8017C3.58498 8.8017 3.88641 8.88138 4.17651 9.03925C4.69817 9.32272 5.11495 9.81491 5.34994 10.4248C5.58471 11.0351 5.60564 11.6794 5.40868 12.2393C5.22817 12.7524 4.88274 13.1297 4.43627 13.3012L4.43542 13.3017C3.46664 13.6751 2.2979 12.9921 1.83028 11.7798Z" fill="#FF9118"/>
<path d="M10.9164 11.1227C13.1842 11.1227 15.0293 9.02066 15.0293 6.43689C15.0293 3.85248 13.1842 1.75 10.9164 1.75C8.6488 1.75 6.80396 3.85248 6.80396 6.43689C6.80396 9.02066 8.6488 11.1227 10.9164 11.1227ZM10.9164 3.39127C12.2791 3.39127 13.388 4.7576 13.388 6.43689C13.388 8.11554 12.2791 9.48145 10.9164 9.48145C9.55371 9.48145 8.44522 8.11554 8.44522 6.43689C8.44522 4.7576 9.55371 3.39127 10.9164 3.39127Z" fill="#FF9118"/>
<path d="M18.0192 12.2739H18.0194C18.3682 12.3897 18.7241 12.445 19.0785 12.445C20.7324 12.445 22.3442 11.2413 22.9592 9.3913C23.3134 8.32639 23.2901 7.20038 22.8936 6.22092C22.4788 5.19574 21.7099 4.45148 20.7286 4.12506C19.7472 3.79907 18.6853 3.93494 17.7391 4.50787C16.8353 5.05539 16.1427 5.94321 15.7892 7.00812C15.0426 9.25458 16.043 11.6168 18.0192 12.2739ZM17.3467 7.52573C17.5776 6.83038 18.019 6.25745 18.5896 5.9118C19.1174 5.59201 19.6933 5.51062 20.211 5.68259C20.7283 5.85477 21.1406 6.2645 21.3722 6.83658C21.6224 7.4548 21.633 8.17813 21.4017 8.87347C20.9405 10.2612 19.6553 11.0879 18.537 10.7164C17.4195 10.3447 16.8855 8.91342 17.3467 7.52573Z" fill="#FF9118"/>
<path d="M26.6807 11.7271L26.6801 11.7264C25.1162 10.5711 22.7772 11.0719 21.4658 12.8432C20.1556 14.6154 20.3605 16.998 21.9221 18.1541C22.4916 18.576 23.1645 18.7777 23.8532 18.7777C25.0536 18.7777 26.3024 18.165 27.137 17.0384C28.4472 15.2661 28.2425 12.8836 26.6807 11.7271ZM25.8179 16.0619C25.0435 17.1071 23.7342 17.4539 22.8988 16.835C22.0639 16.217 22.0131 14.8639 22.7853 13.8193C23.2987 13.1259 24.0485 12.7401 24.7395 12.7401C25.089 12.7401 25.4236 12.8387 25.7047 13.0466C26.5389 13.6653 26.5895 15.0179 25.8179 16.0619Z" fill="#FF9118"/>
</g>
<defs>
<clipPath id="clip0">
<rect width="28" height="28" fill="white"/>
</clipPath>
</defs>
</svg>
