<svg width="28" height="28" viewBox="0 0 28 28" fill="none" xmlns="http://www.w3.org/2000/svg">
<path d="M22.6536 6.76287C23.8069 6.76154 24.9125 6.30282 25.7279 5.48735C26.5433 4.67188 27.002 3.56625 27.0033 2.41303V1.37965C27.0033 1.32937 26.9934 1.27958 26.9742 1.23312C26.9549 1.18667 26.9267 1.14445 26.8912 1.1089C26.8556 1.07335 26.8134 1.04515 26.767 1.02592C26.7205 1.00669 26.6707 0.996813 26.6204 0.996841H1.37975C1.32947 0.996813 1.27968 1.00669 1.23322 1.02592C1.18677 1.04515 1.14455 1.07335 1.109 1.1089C1.07345 1.14445 1.04525 1.18667 1.02602 1.23312C1.0068 1.27958 0.996913 1.32937 0.996942 1.37965V2.41303C0.998216 3.56625 1.45688 4.67188 2.27231 5.48735C3.08774 6.30282 4.19335 6.76154 5.34657 6.76287H11.8126V9.23912H6.20735C5.45276 9.23698 4.72211 9.50382 4.1465 9.99175C3.57089 10.4797 3.188 11.1568 3.06654 11.9015L1.00197 24.3372C0.992891 24.3921 0.995855 24.4482 1.01066 24.5018C1.02546 24.5554 1.05175 24.6051 1.0877 24.6474C1.12365 24.6898 1.1684 24.7239 1.21883 24.7472C1.26927 24.7706 1.32418 24.7826 1.37975 24.7826H2.68022V26.6201C2.68019 26.6704 2.69008 26.7202 2.7093 26.7667C2.72853 26.8131 2.75673 26.8553 2.79228 26.8909C2.82784 26.9264 2.87005 26.9546 2.91651 26.9739C2.96296 26.9931 3.01276 27.003 3.06304 27.0029H24.9376C24.9879 27.003 25.0377 26.9931 25.0841 26.9739C25.1306 26.9546 25.1728 26.9264 25.2084 26.8909C25.2439 26.8553 25.2721 26.8131 25.2913 26.7667C25.3106 26.7202 25.3204 26.6704 25.3204 26.6201V24.7826H26.6209C26.6765 24.7826 26.7314 24.7706 26.7818 24.7472C26.8322 24.7239 26.877 24.6898 26.9129 24.6474C26.9489 24.6051 26.9752 24.5554 26.99 24.5018C27.0048 24.4482 27.0077 24.3921 26.9987 24.3372L24.9341 11.9015C24.8126 11.1567 24.4297 10.4796 23.854 9.99161C23.2783 9.50367 22.5475 9.23688 21.7928 9.23912H16.1887V6.76287H22.6536ZM1.76257 2.41303V1.76247H26.2376V2.41303C26.2368 3.36332 25.8589 4.27444 25.187 4.94642C24.515 5.61839 23.6039 5.99632 22.6536 5.99725H5.34657C4.39628 5.99632 3.48518 5.61839 2.81324 4.94642C2.14131 4.27444 1.76344 3.36332 1.76257 2.41303ZM24.5543 26.2375H3.44497V24.7826H24.5543V26.2375ZM24.1783 12.0269L26.1689 24.017H1.83125L3.82188 12.0269C3.91411 11.4612 4.20491 10.947 4.6421 10.5764C5.07928 10.2058 5.63423 10.0031 6.20735 10.0047H21.7928C22.366 10.0031 22.9209 10.2058 23.3581 10.5764C23.7953 10.947 24.0861 11.4612 24.1783 12.0269ZM15.4231 9.23912H12.5782V6.76287H15.4242L15.4231 9.23912Z" fill="#FF9118"/>
<path d="M8.38135 17.0109C8.3813 18.1222 8.7108 19.2085 9.32818 20.1326C9.94556 21.0566 10.8231 21.7768 11.8498 22.2021C12.8765 22.6274 14.0062 22.7387 15.0962 22.522C16.1862 22.3052 17.1874 21.7701 17.9732 20.9843C18.759 20.1985 19.2942 19.1973 19.511 18.1073C19.7278 17.0174 19.6166 15.8876 19.1913 14.8609C18.766 13.8342 18.0458 12.9566 17.1218 12.3392C16.1978 11.7218 15.1115 11.3923 14.0002 11.3923C12.5105 11.394 11.0824 11.9864 10.029 13.0398C8.97563 14.0931 8.38308 15.5212 8.38135 17.0109ZM18.8376 16.6281H18.1962C18.0947 16.6281 17.9973 16.6684 17.9255 16.7402C17.8537 16.812 17.8134 16.9093 17.8134 17.0109C17.8134 17.1124 17.8537 17.2098 17.9255 17.2816C17.9973 17.3533 18.0947 17.3937 18.1962 17.3937H18.8367C18.7443 18.544 18.2453 19.6239 17.4293 20.44C16.6132 21.256 15.5333 21.755 14.383 21.8474V21.2069C14.383 21.1054 14.3426 21.008 14.2708 20.9362C14.1991 20.8644 14.1017 20.8241 14.0002 20.8241C13.8986 20.8241 13.8013 20.8644 13.7295 20.9362C13.6577 21.008 13.6173 21.1054 13.6173 21.2069V21.8474C12.467 21.755 11.3871 21.256 10.571 20.44C9.75499 19.6239 9.25606 18.544 9.1636 17.3937H9.8041C9.90563 17.3937 10.003 17.3533 10.0748 17.2816C10.1466 17.2098 10.1869 17.1124 10.1869 17.0109C10.1869 16.9093 10.1466 16.812 10.0748 16.7402C10.003 16.6684 9.90563 16.6281 9.8041 16.6281H9.1636C9.25615 15.4777 9.75511 14.3979 10.5711 13.5818C11.3872 12.7658 12.467 12.2669 13.6173 12.1743V12.8148C13.6173 12.9163 13.6577 13.0137 13.7295 13.0855C13.8013 13.1573 13.8986 13.1976 14.0002 13.1976C14.1017 13.1976 14.1991 13.1573 14.2708 13.0855C14.3426 13.0137 14.383 12.9163 14.383 12.8148V12.1743C15.5333 12.2669 16.6131 12.7658 17.4292 13.5818C18.2452 14.3979 18.7442 15.4777 18.8367 16.6281H18.8376Z" fill="#FF9118"/>
<path d="M14.5007 15.9687C14.3449 15.8922 14.1738 15.852 14.0002 15.8511C13.7709 15.8511 13.5467 15.9191 13.3561 16.0464C13.1654 16.1738 13.0168 16.3549 12.9291 16.5668C12.8413 16.7786 12.8184 17.0117 12.8631 17.2366C12.9078 17.4615 13.0183 17.6681 13.1804 17.8302C13.3425 17.9924 13.5491 18.1028 13.774 18.1475C13.9989 18.1923 14.232 18.1693 14.4439 18.0816C14.6557 17.9938 14.8368 17.8452 14.9642 17.6545C15.0916 17.4639 15.1596 17.2397 15.1596 17.0104C15.1586 16.8369 15.1182 16.6658 15.0414 16.5101L16.5493 15.0021C16.5848 14.9666 16.613 14.9244 16.6322 14.8779C16.6515 14.8315 16.6614 14.7817 16.6614 14.7315C16.6614 14.6812 16.6515 14.6315 16.6322 14.585C16.613 14.5386 16.5848 14.4964 16.5493 14.4609C16.5138 14.4254 16.4716 14.3972 16.4251 14.3779C16.3787 14.3587 16.3289 14.3488 16.2787 14.3488C16.2284 14.3488 16.1787 14.3587 16.1323 14.3779C16.0858 14.3972 16.0436 14.4254 16.0081 14.4609L14.5007 15.9687ZM14.0002 17.4051C13.9223 17.4051 13.8462 17.382 13.7814 17.3387C13.7167 17.2954 13.6662 17.2339 13.6364 17.162C13.6066 17.09 13.5988 17.0109 13.614 16.9345C13.6292 16.8581 13.6667 16.7879 13.7218 16.7329C13.7768 16.6778 13.847 16.6403 13.9234 16.6251C13.9998 16.6099 14.0789 16.6177 14.1509 16.6475C14.2228 16.6773 14.2843 16.7278 14.3276 16.7926C14.3709 16.8573 14.3939 16.9334 14.3939 17.0113C14.3939 17.1157 14.3525 17.2159 14.2786 17.2897C14.2048 17.3636 14.1046 17.4051 14.0002 17.4051Z" fill="#FF9118"/>
<path d="M8.76397 2.62762H4.78272C4.73244 2.62762 4.68266 2.63753 4.63622 2.65676C4.58977 2.676 4.54757 2.7042 4.51203 2.73975C4.47648 2.7753 4.44828 2.8175 4.42904 2.86394C4.4098 2.91039 4.3999 2.96017 4.3999 3.01044C4.3999 3.06071 4.4098 3.11049 4.42904 3.15693C4.44828 3.20338 4.47648 3.24558 4.51203 3.28113C4.54757 3.31667 4.58977 3.34487 4.63622 3.36411C4.68266 3.38335 4.73244 3.39325 4.78272 3.39325H8.76397C8.8655 3.39325 8.96287 3.35292 9.03466 3.28113C9.10645 3.20933 9.14678 3.11197 9.14678 3.01044C9.14678 2.90891 9.10645 2.81154 9.03466 2.73975C8.96287 2.66796 8.8655 2.62762 8.76397 2.62762Z" fill="#FF9118"/>
<path d="M11.5706 2.62762H10.3994C10.2979 2.62762 10.2005 2.66796 10.1287 2.73975C10.0569 2.81154 10.0166 2.90891 10.0166 3.01044C10.0166 3.11197 10.0569 3.20933 10.1287 3.28113C10.2005 3.35292 10.2979 3.39325 10.3994 3.39325H11.5706C11.6209 3.39325 11.6707 3.38335 11.7171 3.36411C11.7635 3.34487 11.8057 3.31667 11.8413 3.28113C11.8768 3.24558 11.905 3.20338 11.9243 3.15693C11.9435 3.11049 11.9534 3.06071 11.9534 3.01044C11.9534 2.96017 11.9435 2.91039 11.9243 2.86394C11.905 2.8175 11.8768 2.7753 11.8413 2.73975C11.8057 2.7042 11.7635 2.676 11.7171 2.65676C11.6707 2.63753 11.6209 2.62762 11.5706 2.62762Z" fill="#FF9118"/>
</svg>
