<svg width="20" height="20" viewBox="0 0 20 20" fill="none" xmlns="http://www.w3.org/2000/svg">
<path d="M18.6957 7.82609H17.0678C16.9313 7.38043 16.7526 6.95 16.5357 6.54L17.6856 5.39C17.9317 5.14391 18.0674 4.81609 18.0674 4.46696C18.0674 4.11826 17.9317 3.79043 17.6856 3.54435L16.4552 2.31391C15.9635 1.82217 15.1026 1.82087 14.61 2.31391L13.46 3.46391C13.0504 3.24696 12.6196 3.0687 12.1739 2.93174V1.30435C12.1739 0.585217 11.5887 0 10.8696 0H9.13043C8.4113 0 7.82609 0.585217 7.82609 1.30435V2.93217C7.38043 3.06913 6.95 3.24739 6.54 3.46435L5.38956 2.31435C4.88087 1.80565 4.05304 1.80565 3.54435 2.31435L2.31348 3.54478C1.80522 4.05348 1.80522 4.8813 2.31348 5.39L3.46348 6.54043C3.24652 6.95 3.06826 7.38087 2.9313 7.82652H1.30435C0.585217 7.82652 0 8.41174 0 9.13087V10.87C0 11.5887 0.585217 12.1739 1.30435 12.1739H2.93217C3.06913 12.6196 3.24739 13.05 3.46435 13.46L2.31435 14.6104C1.80565 15.1191 1.80565 15.947 2.31435 16.4557L3.54478 17.6865C4.05348 18.1948 4.8813 18.1948 5.39 17.6865L6.54043 16.5365C6.95 16.7535 7.38087 16.9317 7.82652 17.0687V18.6957C7.82652 19.4148 8.41174 20 9.13087 20H10.87C11.5891 20 12.1743 19.4148 12.1743 18.6957V17.0678C12.62 16.9309 13.0509 16.7526 13.4604 16.5357L14.6104 17.6861C15.1035 18.1787 15.9643 18.1778 16.4557 17.6861L17.6861 16.4557C17.9322 16.2096 18.0678 15.8817 18.0678 15.533C18.0678 15.1839 17.9322 14.8565 17.6861 14.6104L16.5361 13.46C16.753 13.0504 16.9313 12.6196 17.0683 12.1739H18.6957C19.4148 12.1739 20 11.5887 20 10.8696V9.13043C20 8.4113 19.4148 7.82609 18.6957 7.82609ZM19.1304 10.8696C19.1304 11.1091 18.9357 11.3043 18.6957 11.3043H16.7391C16.5409 11.3043 16.3678 11.4387 16.3183 11.6304C16.1643 12.2239 15.93 12.7904 15.6209 13.3139C15.5204 13.4848 15.5478 13.7022 15.6878 13.8422L17.0704 15.2252C17.1522 15.307 17.1974 15.4161 17.1974 15.533C17.1974 15.65 17.1522 15.7591 17.0704 15.8409L15.84 17.0713C15.6765 17.2348 15.3883 17.2348 15.2243 17.0713L13.8417 15.6887C13.7017 15.5483 13.4843 15.5213 13.313 15.6217C12.7904 15.9304 12.2239 16.1652 11.63 16.3187C11.4387 16.3678 11.3043 16.5409 11.3043 16.7391V18.6957C11.3043 18.9352 11.1096 19.1304 10.8696 19.1304H9.13043C8.89087 19.1304 8.69565 18.9352 8.69565 18.6957V16.7391C8.69565 16.5409 8.5613 16.3678 8.36957 16.3183C7.77609 16.1648 7.20957 15.9304 6.68609 15.6213C6.61739 15.5804 6.5413 15.5609 6.46522 15.5609C6.35261 15.5609 6.2413 15.6043 6.15739 15.6883L4.77478 17.0709C4.60478 17.2404 4.32913 17.2404 4.15913 17.0709L2.9287 15.8404C2.7587 15.6704 2.7587 15.3943 2.9287 15.2248L4.3113 13.8422C4.45174 13.7017 4.47913 13.4843 4.37826 13.3139C4.06956 12.7904 3.83478 12.2243 3.6813 11.6304C3.63217 11.4387 3.45913 11.3043 3.26087 11.3043H1.30435C1.06478 11.3043 0.869565 11.1091 0.869565 10.8696V9.13043C0.869565 8.89087 1.06478 8.69565 1.30435 8.69565H3.26087C3.45913 8.69565 3.63217 8.5613 3.68174 8.36957C3.83522 7.77609 4.06957 7.20957 4.3787 6.68609C4.47957 6.51522 4.45217 6.29783 4.31174 6.15783L2.92913 4.77522C2.75957 4.60565 2.75957 4.32957 2.92913 4.15957L4.15957 2.92913C4.32957 2.75913 4.60522 2.75957 4.77522 2.92913L6.15783 4.31174C6.29826 4.45217 6.51522 4.48 6.68609 4.3787C7.20957 4.07 7.77565 3.83522 8.36957 3.68174C8.5613 3.63217 8.69565 3.45913 8.69565 3.26087V1.30435C8.69565 1.06478 8.89087 0.869565 9.13043 0.869565H10.8696C11.1096 0.869565 11.3043 1.06478 11.3043 1.30435V3.26087C11.3043 3.45913 11.4387 3.63217 11.6304 3.68174C12.2243 3.83522 12.7909 4.07 13.3135 4.3787C13.4848 4.47957 13.7022 4.45261 13.8422 4.31174L15.2248 2.92913C15.3887 2.76478 15.677 2.76522 15.8404 2.92913L17.0709 4.15957C17.1526 4.2413 17.1978 4.35087 17.1978 4.46739C17.1978 4.58391 17.1526 4.69348 17.0709 4.77522L15.6883 6.15783C15.5483 6.29826 15.5204 6.51565 15.6213 6.68609C15.9304 7.20957 16.1648 7.77565 16.3187 8.36957C16.3678 8.5613 16.5409 8.69565 16.7391 8.69565H18.6957C18.9357 8.69565 19.1304 8.89087 19.1304 9.13043V10.8696Z" fill="#7A7A7A"/>
<path d="M9.99996 6.08698C7.84257 6.08698 6.08691 7.84263 6.08691 10C6.08691 12.1574 7.84257 13.9131 9.99996 13.9131C12.1578 13.9131 13.913 12.1574 13.913 10C13.913 7.84263 12.1578 6.08698 9.99996 6.08698ZM9.99996 13.0435C8.3217 13.0435 6.95648 11.6783 6.95648 10C6.95648 8.32176 8.3217 6.95654 9.99996 6.95654C11.6778 6.95654 13.0434 8.32176 13.0434 10C13.0434 11.6783 11.6778 13.0435 9.99996 13.0435Z" fill="#7A7A7A"/>
</svg>
