<svg width="28" height="28" viewBox="0 0 28 28" fill="none" xmlns="http://www.w3.org/2000/svg">
<path d="M21.9392 0V1.64062H25.1879L20.9718 5.85676C19.7032 4.8405 18.0949 4.23161 16.3467 4.23161C14.6725 4.23161 13.1263 4.79002 11.8841 5.73005C10.6419 4.79008 9.09581 4.23161 7.4215 4.23161C3.33546 4.23161 0.0112305 7.55584 0.0112305 11.6419C0.0112305 15.4506 2.89977 18.597 6.60118 19.0065V23.6126H4.38869V25.2532H6.60124V28H8.24186V25.2533H10.4544V23.6126H8.24186V19.0065C9.59948 18.8563 10.8477 18.3381 11.8842 17.5538C13.1263 18.4937 14.6725 19.0522 16.3468 19.0522C20.4328 19.0522 23.757 15.728 23.757 11.6419C23.757 9.89379 23.1482 8.28548 22.1319 7.01684L26.3481 2.80071V6.04942H27.9887V0H21.9392ZM11.8842 15.2948C11.0678 14.2993 10.5771 13.0269 10.5771 11.6419C10.5771 10.257 11.0678 8.98456 11.8842 7.98902C12.7005 8.98456 13.1912 10.257 13.1912 11.6419C13.1912 13.0269 12.7005 14.2992 11.8842 15.2948ZM1.65191 11.6419C1.65191 8.46054 4.24016 5.87229 7.42155 5.87229C8.6273 5.87229 9.74774 6.24433 10.6745 6.8793C9.59051 8.16818 8.93645 9.82997 8.93645 11.6419C8.93645 13.4539 9.59051 15.1157 10.6745 16.4046C9.74774 17.0395 8.62736 17.4116 7.42155 17.4116C4.24016 17.4116 1.65191 14.8233 1.65191 11.6419ZM16.3467 17.4116C15.141 17.4116 14.0205 17.0395 13.0938 16.4046C14.1778 15.1157 14.8318 13.4539 14.8318 11.6419C14.8318 9.82997 14.1778 8.16818 13.0938 6.8793C14.0205 6.24433 15.1409 5.87229 16.3467 5.87229C19.5281 5.87229 22.1164 8.46054 22.1164 11.6419C22.1164 14.8233 19.5281 17.4116 16.3467 17.4116Z" fill="#FF9118"/>
</svg>
