<svg width="35" height="35" viewBox="0 0 35 35" fill="none" xmlns="http://www.w3.org/2000/svg">
<path d="M25.9699 11.502L27.468 10.0039V8.26591L34.8295 0.904459L34.0103 0.0852966L26.6488 7.44675H24.9109L23.4128 8.94488L21.0955 6.62759L6.61239 21.1107L4.87442 19.3727L2.31729 21.9298L5.79323 25.4058L3.13645 28.0625L2.55713 27.4832L0 30.0403L4.87442 34.9148L7.43155 32.3576L6.85223 31.7783L9.509 29.1215L12.9849 32.5975L15.5421 30.0403L13.8041 28.3024L28.2872 13.8193L25.9699 11.502ZM25.3906 8.6054H26.3094V9.5242L25.1507 10.6828L24.2319 9.76404L25.3906 8.6054ZM4.87442 33.2764L1.63832 30.0403L2.55713 29.1215L5.79323 32.3576L4.87442 33.2764ZM6.03307 30.9591L3.95562 28.8817L6.61239 26.2249L8.68984 28.3024L6.03307 30.9591ZM13.9037 30.0403L12.9849 30.9591L3.95562 21.9298L4.87442 21.011L13.9037 30.0403ZM12.9849 27.4832L7.43155 21.9298L9.509 19.8524L11.996 22.3394L12.8152 21.5202L10.3282 19.0332L12.4056 16.9558L16.0513 20.6014L16.8705 19.7823L13.2248 16.1366L15.3022 14.0591L17.7893 16.5462L18.6084 15.727L16.1214 13.24L18.1988 11.1625L21.8445 14.8082L22.6637 13.989L19.018 10.3434L21.0955 8.26591L26.6488 13.8193L12.9849 27.4832Z" fill="white"/>
<path d="M34.3498 7.71556L32.6819 6.04826L31.0147 7.71556C30.1482 8.58121 30.1476 9.98534 31.0133 10.8518C31.4295 11.2683 31.9941 11.5022 32.5829 11.502H32.7816C34.0063 11.5024 34.9996 10.5099 35 9.28516C35.0003 8.69635 34.7663 8.13165 34.3498 7.71556ZM33.5297 10.0331C33.3311 10.2316 33.0618 10.3432 32.781 10.3433H32.5823C31.9971 10.3431 31.5229 9.86854 31.5231 9.28335C31.5232 9.00252 31.6347 8.73321 31.8332 8.53465L32.6819 7.68652L33.5301 8.53465C33.9438 8.94857 33.9436 9.61943 33.5297 10.0331Z" fill="white"/>
</svg>
